<?xml version="1.0" encoding="UTF-8"?>
<svg id="Capa_2" data-name="Capa 2" xmlns="http://www.w3.org/2000/svg" viewBox="0 0 209.27 187.49">
  <defs>
    <style>
      .cls-1 {
        fill: #b2a412;
      }

      .cls-1, .cls-2, .cls-3, .cls-4, .cls-5, .cls-6, .cls-7, .cls-8, .cls-9 {
        stroke-width: 0px;
      }

      .cls-2 {
        fill: #e5e6ee;
      }

      .cls-3 {
        fill: #1b1735;
      }

      .cls-4 {
        fill: #38bcd9;
      }

      .cls-5 {
        fill: #d0d1de;
      }

      .cls-6 {
        fill: #fff;
      }

      .cls-7 {
        fill: #abaec4;
      }

      .cls-8 {
        fill: #f08568;
      }

      .cls-9 {
        fill: #9d9eb9;
      }
    </style>
  </defs>
  <g id="Capa_1-2" data-name="Capa 1">
    <g>
      <g>
        <g>
          <rect class="cls-3" x="31.04" y="133.9" width="147.2" height="22.04"/>
          <path class="cls-3" d="m183.17,148.97H26.1c-4.99,0-9.03-4.12-9.03-9.21V38.46c0-5.08,4.04-9.21,9.03-9.21h157.08c4.99,0,9.03,4.12,9.03,9.21v101.31c0,5.08-4.04,9.21-9.03,9.21Z"/>
          <rect class="cls-6" x="25.13" y="37.19" width="159.01" height="102.61"/>
          <g>
            <g>
              <path class="cls-3" d="m0,180.94v3.27c0,1.81,1.93,3.28,4.32,3.28h200.64c2.38,0,4.32-1.47,4.32-3.28v-3.27H0Z"/>
              <path class="cls-3" d="m104.64,155.69H18.74c-.29.31-13.79,12.64-17.92,21.8-1.76,3.91-.61,5.97,2.67,5.97h101.14s101.14,0,101.14,0c3.28,0,4.43-2.06,2.67-5.97-4.12-9.16-17.63-21.48-17.92-21.8h-85.89Z"/>
              <polygon class="cls-9" points="198.4 178.78 15.38 178.78 28.07 159.63 185.72 159.63 198.4 178.78"/>
              <path class="cls-5" d="m196.18,175.42l-.4-.6h-12.21l-2.27-4.64h11.41l-.4-.6h-11.31l-2.27-4.64h10.51l-.4-.6h-10.4l-2.3-4.7h-1.05l2.27,4.7h-13.07l-1.83-4.7h-1.06l1.8,4.7h-13.08l-1.36-4.7h-1.06l1.33,4.7h-13.07l-.9-4.7h-1.06l.86,4.7h-13.08l-.43-4.7h-1.06l.39,4.7h-12.41v-4.7h-1.16v4.7h-12.86l.39-4.7h-1.06l-.43,4.7h-13.08l.86-4.7h-1.06l-.9,4.7h-13.07l1.33-4.7h-1.06l-1.36,4.7h-13.08l1.8-4.7h-1.06l-1.83,4.7h-13.07l2.27-4.7h-1.06l-2.3,4.7h-11.53l-.4.6h11.64l-2.27,4.64h-12.44l-.4.6h12.54l-2.27,4.64h-13.34l-.4.6h13.45l-1.65,3.36h1.2l1.62-3.36h14.09l-1.31,3.36h1.2l1.28-3.36h14.09l-.98,3.36h1.2l.95-3.36h14.09l-.64,3.36h1.2l.62-3.36h14.09l-.31,3.36h1.2l.28-3.36h13.79v3.36h1.16v-3.36h13.34l.28,3.36h1.2l-.31-3.36h14.09l.62,3.36h1.2l-.64-3.36h14.09l.95,3.36h1.2l-.98-3.36h14.09l1.29,3.36h1.2l-1.31-3.36h14.09l1.62,3.36h1.2l-1.65-3.36h12.32Zm-144.67-10.49h13.13l-1.35,4.64h-13.56l1.78-4.64Zm-14.23,0h13.13l-1.81,4.64h-13.56l2.24-4.64Zm9.27,9.89h-14.04l2.24-4.64h13.61l-1.81,4.64Zm15.21,0h-14.04l1.78-4.64h13.61l-1.35,4.64Zm15.21,0h-14.04l1.31-4.64h13.61l-.89,4.64Zm1-5.24h-13.56l1.31-4.64h13.13l-.89,4.64Zm14.21,5.24h-14.04l.85-4.64h13.61l-.42,4.64Zm.48-5.24h-13.56l.85-4.64h13.13l-.42,4.64Zm14.43,5.24h-13.74l.39-4.64h13.35v4.64Zm0-5.24h-13.3l.39-4.64h12.91v4.64Zm1.16-4.64h12.46l.39,4.64h-12.85v-4.64Zm0,9.89v-4.64h12.9l.39,4.64h-13.29Zm69.37-9.89l2.24,4.64h-13.56l-1.81-4.64h13.13Zm-14.23,0l1.78,4.64h-13.56l-1.35-4.64h13.13Zm-41.58,0h13.13l.85,4.64h-13.56l-.42-4.64Zm.9,9.89l-.42-4.64h13.61l.85,4.64h-14.04Zm13.32-9.89h13.13l1.31,4.64h-13.56l-.89-4.64Zm1.89,9.89l-.89-4.64h13.61l1.31,4.64h-14.04Zm15.21,0l-1.35-4.64h13.61l1.78,4.64h-14.04Zm15.21,0l-1.81-4.64h13.61l2.24,4.64h-14.04Z"/>
            </g>
            <path class="cls-3" d="m104.64,183.46h-8.89s-.02.8.44,1.25c.17.17.42.26.67.26h15.55c.25,0,.5-.08.67-.26.47-.46.44-1.23.44-1.25h-8.89Z"/>
          </g>
        </g>
        <rect class="cls-6" x="25.13" y="37.2" width="158.99" height="102.61"/>
        <polygon class="cls-4" points="107.58 89.54 93.23 96.04 75.09 77.54 25.13 116.36 25.13 139.8 184.13 139.8 184.13 19.23 117.7 101.21 107.58 89.54"/>
        <g>
          <rect class="cls-6" x="56.49" y="108.48" width="5.07" height="3.92"/>
          <rect class="cls-6" x="63.64" y="108.48" width="5.07" height="3.92"/>
          <rect class="cls-1" x="70.8" y="108.48" width="5.07" height="3.92"/>
          <rect class="cls-6" x="77.95" y="108.48" width="5.07" height="3.92"/>
          <rect class="cls-6" x="85.11" y="108.48" width="5.07" height="3.92"/>
          <rect class="cls-1" x="92.26" y="108.48" width="5.07" height="3.92"/>
          <rect class="cls-6" x="56.49" y="115.18" width="5.07" height="3.92"/>
          <rect class="cls-6" x="63.64" y="115.18" width="5.07" height="3.92"/>
          <rect class="cls-6" x="70.8" y="115.18" width="5.07" height="3.92"/>
          <rect class="cls-6" x="77.95" y="115.18" width="5.07" height="3.92"/>
          <rect class="cls-1" x="85.11" y="115.18" width="5.07" height="3.92"/>
          <rect class="cls-6" x="92.26" y="115.18" width="5.07" height="3.92"/>
          <rect class="cls-6" x="56.49" y="121.88" width="5.07" height="3.92"/>
          <rect class="cls-1" x="63.64" y="121.88" width="5.07" height="3.92"/>
          <rect class="cls-6" x="70.8" y="121.88" width="5.07" height="3.92"/>
          <rect class="cls-6" x="77.95" y="121.88" width="5.07" height="3.92"/>
          <rect class="cls-6" x="85.11" y="121.88" width="5.07" height="3.92"/>
          <rect class="cls-6" x="92.26" y="121.88" width="5.07" height="3.92"/>
          <rect class="cls-6" x="56.49" y="128.58" width="5.07" height="3.92"/>
          <rect class="cls-6" x="63.64" y="128.58" width="5.07" height="3.92"/>
          <rect class="cls-1" x="70.8" y="128.58" width="5.07" height="3.2"/>
          <rect class="cls-6" x="77.95" y="128.58" width="5.07" height="3.92"/>
        </g>
        <g>
          <polygon class="cls-6" points="109.3 97.38 108.79 96.87 108.15 97.15 107.74 96.13 109 95.59 110.01 96.6 109.3 97.38"/>
          <path class="cls-6" d="m97.74,101.61l-.41-1.02,1.74-.75.41,1.02-1.74.75Zm3.48-1.49l-.41-1.02,1.74-.74.41,1.02-1.74.74Zm3.47-1.49l-.41-1.02,1.73-.74.41,1.02-1.73.74Z"/>
          <polygon class="cls-6" points="94.74 102.9 93.68 101.96 94.36 101.12 94.92 101.62 95.59 101.34 96 102.36 94.74 102.9"/>
          <path class="cls-6" d="m92.15,100.59l-1.54-1.37.67-.83,1.54,1.37-.67.83Zm-3.08-2.74l-1.54-1.37.67-.83,1.54,1.37-.67.83Zm-3.08-2.74l-1.54-1.37.68-.83,1.54,1.37-.67.83Zm-3.08-2.74l-1.54-1.37.68-.83,1.54,1.37-.68.83Zm-3.08-2.74l-1.54-1.37.68-.83,1.54,1.37-.68.83Z"/>
          <polygon class="cls-6" points="76.75 86.88 76.25 86.44 75.72 86.82 75.11 85.91 76.31 85.06 77.43 86.05 76.75 86.88"/>
          <path class="cls-6" d="m28.72,120.49l-.62-.93,1.85-1.32.62.93-1.85,1.32Zm3.69-2.65l-.62-.93,1.84-1.32.62.93-1.84,1.32Zm3.68-2.64l-.62-.93,1.84-1.31.62.93-1.84,1.32Zm3.67-2.63l-.62-.93,1.83-1.31.62.92-1.83,1.31Zm3.65-2.62l-.62-.92,1.82-1.3.62.92-1.82,1.31Zm3.64-2.61l-.61-.92,1.82-1.3.61.92-1.82,1.3Zm3.63-2.6l-.61-.92,1.81-1.3.61.92-1.81,1.3Zm3.62-2.59l-.61-.92,1.8-1.29.61.92-1.8,1.29Zm3.6-2.58l-.61-.92,1.8-1.29.61.92-1.8,1.29Zm3.59-2.57l-.61-.91,1.79-1.28.61.91-1.79,1.28Zm3.58-2.56l-.61-.91,1.78-1.28.61.91-1.78,1.28Zm3.56-2.55l-.61-.91,1.78-1.27.61.91-1.78,1.27Zm3.55-2.54l-.61-.91,1.77-1.27.61.91-1.77,1.27Z"/>
          <path class="cls-6" d="m121.64,104.53l-.78-.74,1.36-1.62.78.74-1.36,1.62Zm2.72-3.24l-.78-.74,1.36-1.61.78.74-1.36,1.61Zm2.71-3.22l-.78-.74,1.35-1.61.78.74-1.35,1.61Zm2.7-3.21l-.78-.74,1.35-1.6.78.74-1.35,1.6Zm2.69-3.2l-.77-.74,1.34-1.6.77.73-1.34,1.6Zm2.69-3.19l-.77-.73,1.34-1.59.77.73-1.34,1.59Zm2.68-3.18l-.77-.73,1.34-1.58.77.73-1.33,1.59Zm2.67-3.17l-.77-.73,1.33-1.58.77.73-1.33,1.58Zm2.66-3.16l-.77-.73,1.33-1.57.77.73-1.33,1.58Zm2.65-3.15l-.77-.73,1.32-1.57.77.73-1.32,1.57Zm2.64-3.14l-.77-.73,1.32-1.56.77.72-1.32,1.56Zm2.63-3.12l-.77-.72,1.31-1.56.76.72-1.31,1.56Zm2.62-3.11l-.76-.72,1.31-1.55.76.72-1.31,1.55Zm2.61-3.1l-.76-.72,1.3-1.55.76.72-1.3,1.55Zm2.6-3.09l-.76-.72,1.3-1.54.76.72-1.3,1.54Zm2.59-3.08l-.76-.72,1.29-1.54.76.72-1.29,1.54Zm2.58-3.07l-.76-.72,1.29-1.53.76.72-1.29,1.53Zm2.58-3.06l-.76-.72,1.29-1.53.76.72-1.28,1.53Zm2.57-3.05l-.76-.72,1.28-1.52.76.72-1.28,1.52Zm2.56-3.04l-.75-.72,1.28-1.51.75.72-1.28,1.52Zm2.55-3.03l-.75-.72,1.27-1.51.75.72-1.27,1.51Zm2.54-3.02l-.75-.71,1.27-1.5.75.71-1.27,1.51Zm2.37-2.86l-.75-.71,1.27-1.5.75.71-1.27,1.51Zm2.37-2.86l-.75-.71,1.27-1.5.75.71-1.27,1.51Z"/>
          <polygon class="cls-6" points="119.24 107.38 118.09 106.22 118.8 105.44 119.17 105.81 119.5 105.42 120.28 106.15 119.24 107.38"/>
          <path class="cls-6" d="m116.33,104.46l-1.76-1.77.71-.79,1.76,1.77-.71.79Zm-3.52-3.54l-1.76-1.77.71-.78,1.76,1.77-.71.79Z"/>
        </g>
        <g>
          <path class="cls-1" d="m179.9,7.25l-61.98,80.12-10.03-12.34-14.68,7.1-18.65-20.29-49.43,40.99v4.93l49.25-40.83,18.37,19.99,14.59-7.06,10.61,13.06L182.28,9.77c-.84-.8-1.66-1.62-2.38-2.51Z"/>
          <polygon class="cls-1" points="189.5 0 174.88 5.05 184.55 14.91 189.5 0"/>
        </g>
        <path class="cls-1" d="m44.27,50.26c3.3.25,6.32,1.69,6.34,5.06l-5.51.03c-.04-1.27-1.32-1.54-2.12-1.53-.51,0-2.14.01-2.14,1.04.01,2.31,10.15-.15,10.19,6.37.02,3.91-2.97,5.39-6.66,5.68l.26,4.16-3.36.02.18-4.19c-3.42-.34-6.62-1.96-6.64-5.48l5.51-.03v.12c.04,1.55,1.74,1.84,2.6,1.84.83,0,2.47-.07,2.46-1.2-.01-2.4-10.15-.15-10.19-6.46-.02-3.64,2.74-5.06,6.16-5.38l-.23-4.19,3.36-.02-.21,4.16Z"/>
      </g>
      <g>
        <path class="cls-3" d="m128.26,163.15s.23,4.56-.42,5.24c-.65.68-9.52,1.66-10.35.9-.83-.77-.49-2.21,1.38-2.9,2-.74,3.05-.26,4.29-.9s.74-2.68.74-2.68l4.36.34Z"/>
        <path class="cls-3" d="m157.33,163.15s-.23,4.56.42,5.24c.65.68,9.52,1.66,10.35.9.83-.77.49-2.21-1.38-2.9-2-.74-3.05-.26-4.29-.9-1.24-.65-.74-2.68-.74-2.68l-4.36.34Z"/>
        <path class="cls-1" d="m157.81,136.75c-.97-4.97-6.16-18.55-8.09-23.25-.77-.27-1.62-.53-2.48-.78.23-1.06.38-1.97.54-2.77-1.51.41-3.11.6-4.73,1.13-.22.07-.47.15-.72.22-.26-.08-.5-.15-.72-.22-1.62-.52-3.22-.72-4.73-1.13.17.8.32,1.71.54,2.77-.86.26-1.71.52-2.48.78-1.92,4.71-7.12,18.28-8.09,23.25-1.34,6.88-3.58,27.28-3.58,27.28l5.7.77s5.73-27.4,6.55-28.92c1.47-2.72,3.01-5.13,4.38-7.26,1.15-1.78,3.69-1.78,4.84,0,1.37,2.13,2.91,4.54,4.38,7.26.82,1.52,6.55,28.92,6.55,28.92l5.7-.77s-2.24-20.4-3.58-27.28Z"/>
        <path class="cls-8" d="m159.38,51.95c-.34-2.36-.68-2.73-1.46-3.19-.37-.22-.73-.41-.98-.75-.26-.35-.68-.66-1.04-.97-.34-.28-.78-.58-.93-1.06-.18-.57.55-.41,1.02-.24.51.19,1.47,1.63,2.02,1.43.54-.2-.73-1.87-.99-2.2-.61-.78-1.34-.67-2.15-1.03-.47-.21-.63-.45-.12-.76.38-.23.87-.04,1.26.09.79.27,1.62.75,2.19,1.39-.38-.55-1.32-1.2-1.91-1.51-.41-.21-2.32-.81-2.05-1.5.55-1.38,4.26,1.22,4.66,1.95-.48-.69-1.16-1.16-1.83-1.65-.39-.29-1.35-.92-.55-1.25,1.19-.49,2.62,1.76,3.44,2.64-.34-.75-.83-1.21-1.38-1.9-.65-.81.16-1.02.97-.31.34.3.92,1.01,1.04,1.17,1.29,1.66,1.34,2.78,1.57,4.81.08.73.1,1.92.34,4.04.14,1.22-2.12.59-3.12.79Z"/>
        <path class="cls-8" d="m103.88,84.95c-2.19-.84-2.46-1.74-2.74-2.61-.13-.41-.23-.81-.51-1.13-.28-.33-.49-.82-.7-1.24-.2-.39-.39-.9-.81-1.15-.5-.3-.51.46-.44.97.07.55,1.24,1.81.94,2.31-.31.5-1.64-1.13-1.9-1.46-.61-.78-.36-1.48-.53-2.36-.1-.52-.3-.72-.71-.28-.3.33-.23.86-.18,1.27.09.84.37,1.78.86,2.48-.45-.5-.87-1.57-1.04-2.23-.12-.46-.28-2.48-1-2.36-1.44.25.26,4.5.88,5.06-.56-.62-.86-1.4-1.19-2.17-.19-.45-.59-1.54-1.08-.81-.72,1.08,1.12,2.99,1.8,3.99-.65-.5-.98-1.08-1.52-1.78-.64-.82-1.01-.06-.5.9.21.4.77,1.13.9,1.29,1.32,1.64,2.37,1.93,4.27,2.59.68.24,1.4.3,3.65,1.4,1.08.54,1.16-1.72,1.57-2.67Z"/>
        <path class="cls-8" d="m145.15,80.53c-1.24.25-2.55.29-3.74.19-.44-.04-.88-.14-1.31-.29.05,1.59.05,5.26-1.04,6.77,0,0,.39,1.77,3.56,1.82,3.18.05,3.57-1.82,3.57-1.82,0,0-1.17-2.65-1.05-6.67Z"/>
        <path class="cls-2" d="m157.37,89.49c-.87-1.13-4.97-3.61-7.75-4.06-4.51-.73-9.13-.73-13.64,0-2.78.45-5.55,1.17-6.41,2.29-1.08,1.41,2.16,9.33,2.7,16.59.45,6.02,1.25,10.68,1.25,10.68,1.78,3.34,15.71,3.43,17.49.09,0,0,.34-5.15,1.3-10.77,1.26-7.32,6.15-13.4,5.06-14.83Z"/>
        <path class="cls-7" d="m134.99,102.65c.09-1.95.72-5.46.02-7.25-1.01-2.56-3.29-3.52-5.4-4.69.63,3.28,2.28,8.58,2.65,13.61.45,6.02,1.25,10.68,1.25,10.68.33.62,1.1,1.11,2.11,1.5-1.98-3.86-.81-10.04-.63-13.85Z"/>
        <path class="cls-8" d="m149.43,71.71s-6.58-3.95-7.58-2.98c-1,.97-2.56,4.27-3.32,4.78-.76.5-1.94.98-1.83,1.58.11.59.49.63.46,1.23-.03.6-1.36,3.46-.64,4.31.73.85,5.51,2.71,8.38.76,2.87-1.95,7.77-7.9,4.52-9.67Z"/>
        <path class="cls-3" d="m150.88,73.16l-5.54.09s-1.04,2.8-3.41,4.59c0,0,.13.83.73.66.59-.17.96-.24,1.36-.87s1.59-2.28,2.41-.83c.81,1.45-.93,1.94-1.66,1.93,0,0-2.52,3.12-.56,3.71,0,0,2.19-.33,5.53-3.94,3.33-3.61,2.65-5.61,1.16-5.33Z"/>
        <path class="cls-3" d="m140.39,66.55s-2.69,1.67.43,5.01,10.47,1.58,10.47,1.58c0,0,.78-2.18-1.87-4.46-1.98-1.71-4.16-2.58-5.91-1.76-2.97,1.39-3.11-.37-3.11-.37Z"/>
        <path class="cls-2" d="m103.15,83.88l-2.36,3.83s6.07,5.94,13.03,10.65c4.06,2.74,17.96-1.64,20.1-2.3,3.07-.94,5.37-7.56.26-10.02-3-1.44-15.03,7.88-17.97,6.3-3.69-1.98-13.07-8.46-13.07-8.46Z"/>
        <path class="cls-2" d="m158.36,50.96l4.68-.8s3.09,13.78,2.9,18.74c-.18,4.96-7.92,22.99-9.68,24.4-2.12,1.69-8-3.2-3.74-8.48,4.26-5.28,7.03-16.15,7.14-16.59s-1.3-17.28-1.3-17.28Z"/>
      </g>
      <rect class="cls-5" x="61.62" y="43.1" width="37.74" height="3.46"/>
      <rect class="cls-5" x="61.62" y="48.57" width="37.74" height="3.46"/>
      <rect class="cls-5" x="61.62" y="54.04" width="28.56" height="3.46"/>
    </g>
  </g>
</svg>