<?xml version="1.0" encoding="UTF-8"?>
<svg id="Capa_2" data-name="Capa 2" xmlns="http://www.w3.org/2000/svg" viewBox="0 0 93.54 93.54">
  <defs>
    <style>
      .cls-1 {
        fill: #f5f9f5;
        stroke-width: 0px;
      }
    </style>
  </defs>
  <g id="Capa_1-2" data-name="Capa 1">
    <path class="cls-1" d="m.02,24.25C.05,15.47,2.95,8.93,8.48,3.59,14.83-2.53,22.98-.6,25.88,7.68c.83,2.38,1.58,4.81,2.66,7.07,3.58,7.48,4.4,14.4-3.07,20.12-2.87,2.2-1.73,4.69-.3,7.25,6.89,12.28,16.58,21.36,29.04,27.53,3.61,1.78,5.6.44,7.94-2.18,8.74-9.77,8.8-9.7,20.4-3.24,1.27.71,2.53,1.42,3.81,2.1,8.06,4.31,9.61,11.67,3.27,18.56-6.11,6.64-14.04,10.22-22.93,7.98-31.15-7.86-51.61-28.52-64.48-57.87C.6,31.32-.14,27.37.02,24.25Z"/>
  </g>
</svg>