<?xml version="1.0" encoding="UTF-8"?>
<svg id="Capa_2" data-name="Capa 2" xmlns="http://www.w3.org/2000/svg" viewBox="0 0 226.74 94.62">
  <defs>
    <style>
      .cls-1 {
        fill: #f5f9f5;
        stroke-width: 0px;
      }
    </style>
  </defs>
  <g id="Capa_1-2" data-name="Capa 1">
    <path class="cls-1" d="m0,94.62c2.36-6.91,4.22-12.86,6.45-18.67,1.38-3.6,1.27-6.63-.48-10.24C-2.39,48.49,1.42,28.3,15.29,14.21,27.95,1.35,48.47-2.55,65.41,4.67c23.05,9.83,34.18,36.21,24.82,58.83-9.86,23.82-36.16,35.07-59.92,25.31-4.02-1.65-7.36-1.74-11.32-.25-5.85,2.2-11.92,3.84-18.98,6.05Zm12.24-11.79c2.7-.74,5.2-1.05,7.33-2.1,4.43-2.2,8.15-1.27,12.56.65,14.32,6.25,28.06,4.44,39.99-5.62,12.39-10.45,16.44-23.98,12.26-39.66-5.32-19.93-26.91-31.76-47.35-26.12C17.21,15.45,5.03,36.56,10.3,56.07c1.22,4.53,4.32,8.32,5.36,12.67,1.09,4.59-2.94,8.8-3.42,14.09Z"/>
    <path class="cls-1" d="m133.22,24.25c.03-8.78,2.93-15.32,8.46-20.66,6.35-6.13,14.5-4.19,17.39,4.09.83,2.38,1.58,4.81,2.66,7.07,3.58,7.48,4.4,14.4-3.07,20.12-2.87,2.2-1.73,4.69-.3,7.25,6.89,12.28,16.58,21.36,29.04,27.53,3.61,1.78,5.6.44,7.94-2.18,8.74-9.77,8.8-9.7,20.4-3.24,1.27.71,2.53,1.42,3.81,2.1,8.06,4.31,9.61,11.67,3.27,18.56-6.11,6.64-14.04,10.22-22.93,7.98-31.15-7.86-51.61-28.52-64.48-57.87-1.62-3.69-2.36-7.64-2.2-10.76Z"/>
    <path class="cls-1" d="m59.56,69.43c-9.4-1.67-17.7-6.07-24.26-13.56-4.15-4.74-8-9.71-9.91-15.82-1.66-5.32-.69-10.16,3.46-14.05,3.28-3.08,6.98-2.29,8.56,1.92,1.71,4.56,5.25,9.27-.4,13.79-1.18.95-.12,2.44.55,3.59,3.26,5.59,7.9,9.63,13.7,12.51,2.11,1.05,3.5.48,4.67-1.18,2.28-3.25,4.91-5,8.51-1.92,2.37,2.03,7.47,1.46,6.59,6.64-.85,5.04-4.48,6.97-9.04,7.79-.65.12-1.31.16-2.42.29Z"/>
  </g>
</svg>