<?xml version="1.0" encoding="UTF-8"?>
<svg id="Capa_2" data-name="Capa 2" xmlns="http://www.w3.org/2000/svg" xmlns:xlink="http://www.w3.org/1999/xlink" viewBox="0 0 155.76 43.2">
  <defs>
    <style>
      .cls-1 {
        filter: url(#drop-shadow-6);
      }

      .cls-1, .cls-2, .cls-3, .cls-4, .cls-5, .cls-6, .cls-7, .cls-8, .cls-9, .cls-10, .cls-11, .cls-12, .cls-13, .cls-14 {
        fill: #57aa3b;
        stroke-width: 0px;
      }

      .cls-2 {
        filter: url(#drop-shadow-12);
      }

      .cls-3 {
        filter: url(#drop-shadow-14);
      }

      .cls-4 {
        filter: url(#drop-shadow-2);
      }

      .cls-5 {
        filter: url(#drop-shadow-5);
      }

      .cls-6 {
        filter: url(#drop-shadow-4);
      }

      .cls-7 {
        filter: url(#drop-shadow-10);
      }

      .cls-8 {
        filter: url(#drop-shadow-3);
      }

      .cls-9 {
        filter: url(#drop-shadow-9);
      }

      .cls-10 {
        filter: url(#drop-shadow-8);
      }

      .cls-11 {
        filter: url(#drop-shadow-11);
      }

      .cls-12 {
        filter: url(#drop-shadow-1);
      }

      .cls-13 {
        filter: url(#drop-shadow-13);
      }

      .cls-14 {
        filter: url(#drop-shadow-7);
      }
    </style>
    <filter id="drop-shadow-1" filterUnits="userSpaceOnUse">
      <feOffset dx="7" dy="7"/>
      <feGaussianBlur result="blur" stdDeviation="5"/>
      <feFlood flood-color="#13151a" flood-opacity=".75"/>
      <feComposite in2="blur" operator="in"/>
      <feComposite in="SourceGraphic"/>
    </filter>
    <filter id="drop-shadow-2" filterUnits="userSpaceOnUse">
      <feOffset dx="7" dy="7"/>
      <feGaussianBlur result="blur-2" stdDeviation="5"/>
      <feFlood flood-color="#13151a" flood-opacity=".75"/>
      <feComposite in2="blur-2" operator="in"/>
      <feComposite in="SourceGraphic"/>
    </filter>
    <filter id="drop-shadow-3" filterUnits="userSpaceOnUse">
      <feOffset dx="7" dy="7"/>
      <feGaussianBlur result="blur-3" stdDeviation="5"/>
      <feFlood flood-color="#13151a" flood-opacity=".75"/>
      <feComposite in2="blur-3" operator="in"/>
      <feComposite in="SourceGraphic"/>
    </filter>
    <filter id="drop-shadow-4" filterUnits="userSpaceOnUse">
      <feOffset dx="7" dy="7"/>
      <feGaussianBlur result="blur-4" stdDeviation="5"/>
      <feFlood flood-color="#13151a" flood-opacity=".75"/>
      <feComposite in2="blur-4" operator="in"/>
      <feComposite in="SourceGraphic"/>
    </filter>
    <filter id="drop-shadow-5" filterUnits="userSpaceOnUse">
      <feOffset dx="7" dy="7"/>
      <feGaussianBlur result="blur-5" stdDeviation="5"/>
      <feFlood flood-color="#13151a" flood-opacity=".75"/>
      <feComposite in2="blur-5" operator="in"/>
      <feComposite in="SourceGraphic"/>
    </filter>
    <filter id="drop-shadow-6" filterUnits="userSpaceOnUse">
      <feOffset dx="7" dy="7"/>
      <feGaussianBlur result="blur-6" stdDeviation="5"/>
      <feFlood flood-color="#13151a" flood-opacity=".75"/>
      <feComposite in2="blur-6" operator="in"/>
      <feComposite in="SourceGraphic"/>
    </filter>
    <filter id="drop-shadow-7" filterUnits="userSpaceOnUse">
      <feOffset dx="7" dy="7"/>
      <feGaussianBlur result="blur-7" stdDeviation="5"/>
      <feFlood flood-color="#13151a" flood-opacity=".75"/>
      <feComposite in2="blur-7" operator="in"/>
      <feComposite in="SourceGraphic"/>
    </filter>
    <filter id="drop-shadow-8" filterUnits="userSpaceOnUse">
      <feOffset dx="7" dy="7"/>
      <feGaussianBlur result="blur-8" stdDeviation="5"/>
      <feFlood flood-color="#13151a" flood-opacity=".75"/>
      <feComposite in2="blur-8" operator="in"/>
      <feComposite in="SourceGraphic"/>
    </filter>
    <filter id="drop-shadow-9" filterUnits="userSpaceOnUse">
      <feOffset dx="7" dy="7"/>
      <feGaussianBlur result="blur-9" stdDeviation="5"/>
      <feFlood flood-color="#13151a" flood-opacity=".75"/>
      <feComposite in2="blur-9" operator="in"/>
      <feComposite in="SourceGraphic"/>
    </filter>
    <filter id="drop-shadow-10" filterUnits="userSpaceOnUse">
      <feOffset dx="7" dy="7"/>
      <feGaussianBlur result="blur-10" stdDeviation="5"/>
      <feFlood flood-color="#13151a" flood-opacity=".75"/>
      <feComposite in2="blur-10" operator="in"/>
      <feComposite in="SourceGraphic"/>
    </filter>
    <filter id="drop-shadow-11" filterUnits="userSpaceOnUse">
      <feOffset dx="7" dy="7"/>
      <feGaussianBlur result="blur-11" stdDeviation="5"/>
      <feFlood flood-color="#13151a" flood-opacity=".75"/>
      <feComposite in2="blur-11" operator="in"/>
      <feComposite in="SourceGraphic"/>
    </filter>
    <filter id="drop-shadow-12" filterUnits="userSpaceOnUse">
      <feOffset dx="7" dy="7"/>
      <feGaussianBlur result="blur-12" stdDeviation="5"/>
      <feFlood flood-color="#13151a" flood-opacity=".75"/>
      <feComposite in2="blur-12" operator="in"/>
      <feComposite in="SourceGraphic"/>
    </filter>
    <filter id="drop-shadow-13" filterUnits="userSpaceOnUse">
      <feOffset dx="7" dy="7"/>
      <feGaussianBlur result="blur-13" stdDeviation="5"/>
      <feFlood flood-color="#13151a" flood-opacity=".75"/>
      <feComposite in2="blur-13" operator="in"/>
      <feComposite in="SourceGraphic"/>
    </filter>
    <filter id="drop-shadow-14" filterUnits="userSpaceOnUse">
      <feOffset dx="7" dy="7"/>
      <feGaussianBlur result="blur-14" stdDeviation="5"/>
      <feFlood flood-color="#13151a" flood-opacity=".75"/>
      <feComposite in2="blur-14" operator="in"/>
      <feComposite in="SourceGraphic"/>
    </filter>
  </defs>
  <g id="Capa_1-2" data-name="Capa 1">
    <path class="cls-12" d="m8.41,18.48c.43,0,.86,0,1.28.01.35.02.44-.11.44-.45-.02-.99-.02-1.97-.02-2.96,0-.16-.03-.34.19-.42.67-.22,1.65.15,1.99.76.49.9.98,1.8,1.45,2.71.12.23.27.33.51.33.75,0,1.51,0,2.26.02.34,0,.33-.14.2-.38-.39-.69-.76-1.39-1.15-2.07-.34-.58-.6-1.22-1.23-1.56-.09-.05-.19-.12-.17-.24.02-.14.16-.15.27-.18.91-.3,1.55-.92,1.75-1.83.46-2.16-.62-3.84-2.9-4.07-1.7-.17-3.4-.06-5.1-.07.13,3.47.23,6.95.25,10.41Zm2.07-8.38c.72.02,1.45-.03,2.16.15.67.17,1.07.66,1.02,1.27-.06.65-.56,1.16-1.21,1.21-.32.02-.65,0-.97,0,0,.01,0,.03,0,.04-.32,0-.65,0-.97,0-.25,0-.42-.09-.41-.39,0-.62,0-1.24,0-1.86,0-.27.11-.43.39-.42Z"/>
    <path class="cls-4" d="m33.96,13.26c0,1.6,0,3.19,0,4.79,0,.36-.12.47-.47.45-.53-.03-1.07-.03-1.6,0-.34.02-.41-.12-.34-.42.02-.09.04-.18.04-.27,0-.14.06-.32-.11-.38-.14-.05-.22.1-.3.2-.35.43-.76.8-1.31.92-1.5.34-2.86-.15-3.53-1.52-.8-1.64-.79-3.34.26-4.88.92-1.34,3.1-1.67,4.27-.41.09.1.18.22.32.17.17-.05.15-.22.15-.36,0-1.04,0-2.08-.03-3.11,0-.31.1-.41.41-.4.61.02,1.22.03,1.83,0,.34-.02.45.09.45.43-.02.8,0,1.61,0,2.41,0,.79,0,1.58,0,2.37-.01,0-.03,0-.04,0Zm-5.54,1.52c0,.34.05.67.18.99.2.5.54.86,1.1.92.57.06,1.05-.12,1.37-.63.4-.65.41-1.35.22-2.06-.23-.84-1.09-1.25-1.91-.93-.63.25-.96.84-.95,1.71Z"/>
    <path class="cls-8" d="m115.5,16.16c0,1.51,0,3.01,0,4.52,0,.48-.02.49-.51.48-.57,0-1.14-.02-1.71,0-.31.01-.41-.09-.4-.4.02-.89.03-1.79.03-2.69,0-.14.03-.31-.12-.39-.16-.08-.27.08-.36.17-1.38,1.43-4.01.89-4.81-1.33-.43-1.22-.44-2.45.05-3.65.72-1.78,3.26-2.75,4.91-1.01.15.15.29.43.52.31.2-.11.07-.38.02-.57-.09-.33.02-.45.36-.44.56.02,1.12.02,1.67.01.28,0,.38.1.38.39-.01,1.53,0,3.06,0,4.59,0,0-.01,0-.02,0Zm-2.57-1.38c0-.11,0-.3-.03-.49-.09-.63-.64-1.19-1.3-1.33-.5-.1-1.15.21-1.41.77-.37.78-.35,1.59.09,2.35.34.58.91.76,1.55.56.71-.22,1.1-.83,1.11-1.85Z"/>
    <path class="cls-6" d="m83,16.15c0-1.52,0-3.04,0-4.56,0-.32.09-.44.42-.43.56.02,1.12.01,1.68.01.37,0,.42.07.33.45-.04.14-.17.32,0,.42.18.11.31-.07.42-.19,1.49-1.51,3.54-.91,4.44.22.59.74.82,1.62.84,2.54.03,1.23-.23,2.38-1.17,3.26-1.04.98-3.01,1.05-3.91-.02-.09-.11-.22-.23-.36-.19-.17.06-.1.24-.1.38,0,.88,0,1.77.01,2.65,0,.37-.13.47-.48.45-.56-.03-1.12-.03-1.67,0-.33.02-.43-.09-.43-.41.01-1.53,0-3.06,0-4.6h0Zm5.51-1.29c0-.31-.01-.58-.09-.85-.33-1.12-1.64-1.45-2.42-.59-.59.65-.5,1.44-.31,2.21.16.68.72,1.09,1.34,1.08.7-.01,1.18-.38,1.38-1.08.08-.26.12-.53.1-.77Z"/>
    <path class="cls-5" d="m64.59,14.82c0-1.08.01-2.15,0-3.23,0-.32.08-.45.41-.43.57.02,1.14.02,1.71,0,.33,0,.42.12.35.42,0,.03-.02.05-.02.08-.02.16-.14.35.05.46.17.1.27-.09.38-.19.61-.55,1.24-.96,2.14-.96,1.45,0,2.5,1.04,2.61,2.41.14,1.61.05,3.22.05,4.82,0,.2-.08.28-.28.28-.69,0-1.38,0-2.07,0-.27,0-.32-.13-.31-.37.01-1.09.02-2.18.02-3.27,0-.18,0-.36,0-.55-.03-.79-.39-1.2-1.02-1.22-.51-.02-1.41.6-1.39,1.28.04,1.23,0,2.47.02,3.7,0,.35-.11.45-.44.44-.6-.02-1.2-.02-1.79,0-.3,0-.41-.08-.4-.4.02-1.09,0-2.18,0-3.27,0,0-.01,0-.02,0Z"/>
    <path class="cls-1" d="m43.94,8.07c1.42,0,2.83,0,4.25,0,.36,0,.48.11.46.47-.04.49-.03.99-.03,1.48,0,.25-.09.34-.34.34-.84-.02-1.69-.02-2.53-.02-.47,0-.5.04-.5.52,0,2.39-.02,4.77-.01,7.16,0,.37-.09.5-.48.47-.59-.05-1.19-.03-1.79-.02-.29,0-.38-.09-.38-.38.02-2.36.02-4.72.02-7.08,0-.66-.01-.67-.67-.67-.75,0-1.51-.01-2.26,0-.33,0-.44-.11-.42-.43.02-.48.03-.96.01-1.44-.01-.31.11-.4.41-.4,1.43.01,2.86,0,4.28,0h0Z"/>
    <path class="cls-14" d="m124.82,14.84c0,1.09,0,2.18,0,3.27,0,.29-.11.39-.39.38-.54-.01-1.09,0-1.63,0-.33,0-.5-.1-.38-.47.03-.08.03-.18.04-.27,0-.09.03-.19-.09-.23-.08-.03-.15,0-.21.06-.09.08-.18.15-.25.24-.74.89-1.7.97-2.73.73-1.07-.26-1.72-1.05-1.85-2.19-.12-1.05-.05-2.1-.06-3.15,0-.52.02-1.04,0-1.56-.02-.34.08-.49.45-.48.6.03,1.19.03,1.79.01.33,0,.45.09.44.44-.02,1.31,0,2.62-.02,3.93,0,.39.06.73.47.89.41.17.81.16,1.19-.09.43-.29.63-.69.63-1.22-.01-1.15.01-2.31,0-3.46,0-.37.09-.51.48-.5.58.02,1.17.02,1.75,0,.34-.01.42.12.41.44-.01,1.08,0,2.15,0,3.23,0,0-.02,0-.02,0Z"/>
    <path class="cls-10" d="m99.52,16.08c0,.79-.01,1.4,0,2.01,0,.26-.08.39-.35.39-.55,0-1.09,0-1.64,0-.26,0-.39-.12-.31-.4,0-.02.01-.05.01-.08,0-.19.09-.45-.1-.54-.23-.1-.31.18-.41.33-.69,1.07-2.47,1-3.38.5-.9-.49-1.4-1.21-1.33-2.27.05-.8.63-1.42,1.5-1.68.91-.27,1.84-.27,2.78-.27.23,0,.55.16.67-.2.09-.27-.18-.7-.51-.84-.48-.21-.99-.19-1.49-.11-.58.1-1.15.21-1.68.47-.3.15-.46.05-.53-.27-.06-.32-.19-.62-.33-.91-.11-.23-.09-.4.16-.5,1.67-.7,3.38-1.03,5.16-.42.95.32,1.64,1.31,1.7,2.32.06.88.07,1.76.06,2.47Zm-3.14-.8c-.4.07-.87.05-1.31.22-.31.12-.51.32-.49.66.02.34.2.6.52.7.82.24,1.51-.11,1.83-.87.21-.49.04-.72-.55-.7Z"/>
    <path class="cls-9" d="m77.63,18.61c-.79.02-1.55-.13-2.25-.51-.64-.35-1.13-.84-1.41-1.51-.52-1.22-.54-2.46.03-3.66.56-1.18,1.6-1.7,2.82-1.89,1.14-.18,2.27-.05,3.26.59,1.21.77,1.68,1.93,1.65,3.32-.05,2.37-1.87,3.74-4.11,3.66Zm1.49-3.76c0-.3,0-.59-.09-.88-.29-1.01-1.54-1.36-2.3-.64-.58.55-.73,1.57-.35,2.5.22.55.74.89,1.3.88.6-.02,1.1-.39,1.3-.94.11-.3.14-.6.14-.92Z"/>
    <path class="cls-7" d="m22.4,15.43c-.71,0-1.43,0-2.14,0-.43,0-.49.1-.28.48.17.31.43.5.76.64.99.41,1.94.14,2.88-.19.52-.18.54-.21.7.33.08.29.2.56.32.83.09.2.09.37-.15.49-1.71.8-3.46.93-5.19.12-1.81-.84-2.27-2.68-1.83-4.46.41-1.67,2.03-2.65,3.56-2.68,1.24-.02,2.35.27,3.14,1.31.64.85.85,1.82.79,2.86-.01.21-.11.28-.32.28-.74-.01-1.48,0-2.22,0,0,0,0,0,0,0Zm-1.15-1.3s0,0,0,0c.42,0,.83,0,1.25,0,.23,0,.36-.13.28-.35-.19-.48-.45-.91-1.01-1.03-.85-.19-1.49.12-1.92.94-.15.28-.09.41.24.43.39.02.78,0,1.17,0Z"/>
    <path class="cls-11" d="m131.08,15.43c-.71,0-1.43,0-2.14,0-.4,0-.47.13-.26.47.37.63,1.41,1.01,2.24.81.55-.13,1.13-.15,1.64-.46.17-.1.28-.03.35.16.14.39.3.77.47,1.15.12.27-.07.35-.25.43-1.3.66-2.67.79-4.09.5-1.07-.22-1.96-.71-2.51-1.67-.73-1.26-.75-2.59-.09-3.87.64-1.26,1.77-1.86,3.16-1.95,1.19-.08,2.27.19,3.1,1.13.76.85.98,1.89.97,3,0,.27-.19.31-.4.31-.73,0-1.45,0-2.18,0h0Zm-1.18-1.29s0-.01,0-.02c.43,0,.85,0,1.28,0,.23,0,.34-.14.27-.36-.15-.47-.41-.84-.9-.99-.87-.27-1.67.12-2.03.96-.11.26-.02.4.26.41.37,0,.75,0,1.12,0Z"/>
    <path class="cls-2" d="m53.41,15.41c-.71,0-1.43,0-2.14,0-.14,0-.31-.03-.38.12-.07.15.04.27.12.39.41.62,1.37,1,2.17.81.59-.14,1.21-.16,1.76-.48.16-.09.25-.02.31.15.12.37.26.73.42,1.09.13.29.02.42-.24.54-1.28.59-2.61.75-3.99.48-1.35-.27-2.41-.95-2.85-2.3-.61-1.86-.13-3.95,1.83-4.83,2.23-1,5.31-.19,5.54,3.08.08,1.09.08,1.01-.87.96-.56-.03-1.12,0-1.67,0,0,0,0,0,0,0Zm-1.14-1.28h0c.27,0,.55.02.82,0,.24-.01.55.11.68-.14.15-.29-.13-.53-.26-.77-.02-.03-.05-.06-.08-.09-.43-.46-.97-.52-1.54-.38-.56.14-.84.58-1.07,1.05-.1.21.03.32.24.32.4,0,.81,0,1.21,0Z"/>
    <path class="cls-13" d="m56.84,14.76c-.06-2.08,1.45-3.65,3.75-3.78.99-.06,1.9.18,2.77.62.22.11.29.26.18.46-.23.4-.4.82-.52,1.25-.06.23-.19.16-.32.1-.44-.2-.89-.35-1.38-.37-.84-.04-1.5.37-1.73,1.1-.28.93.02,1.91.76,2.28.66.33,1.35.21,2-.05.61-.24.6-.26.82.35.11.29.23.58.35.87.08.19.1.34-.13.45-1.29.63-2.62.8-4.01.39-1.49-.44-2.64-1.86-2.55-3.67Z"/>
    <path class="cls-3" d="m101.11,14.81c0-1.08,0-2.16,0-3.23,0-.3.09-.42.4-.41.57.02,1.14.01,1.71,0,.27,0,.34.11.31.35-.03.23-.05.46-.07.7,0,.1,0,.22.12.26.12.04.2-.05.24-.15.49-1.1,1.47-1.28,2.52-1.36.24-.02.33.09.34.31.03.54.07,1.09.11,1.63.03.31-.12.42-.4.43-.39.02-.78.04-1.17.08-.96.12-1.42.63-1.43,1.59,0,1.03-.02,2.05-.02,3.08,0,.24-.06.37-.32.37-.67,0-1.35,0-2.02,0-.29,0-.34-.14-.34-.38,0-1.09,0-2.18,0-3.27,0,0,0,0,0,0Z"/>
  </g>
</svg>