<?xml version="1.0" encoding="UTF-8"?>
<svg id="Capa_2" data-name="Capa 2" xmlns="http://www.w3.org/2000/svg" viewBox="0 0 186.25 184.44">
  <defs>
    <style>
      .cls-1, .cls-2 {
        stroke-width: 0px;
      }

      .cls-2 {
        fill: #fff;
      }
    </style>
  </defs>
  <g id="Capa_1-2" data-name="Capa 1">
    <g>
      <path class="cls-1" d="m92.98,184.44c-21.33,0-42.67,0-64,0C12.09,184.43,0,172.52,0,155.88c0-42.44,0-84.89,0-127.33C0,12.02,12.08,0,28.69,0c42.96,0,85.92,0,128.87,0,16.49,0,28.68,12.01,28.68,28.26,0,42.64,0,85.27,0,127.91,0,16.24-12.2,28.26-28.69,28.26-21.53,0-43.06,0-64.58,0Zm71.15-92.26c0-14.02.02-28.04,0-42.07-.02-16.31-11.98-28.18-28.41-28.2-28.42-.02-56.83-.02-85.25,0-16.26.01-28.31,11.91-28.33,27.98-.03,28.24-.03,56.47,0,84.71.02,15.91,12.08,27.89,28.11,27.91,28.61.03,57.22.04,85.83-.04,2.58,0,5.24-.37,7.73-1.04,12.17-3.28,20.24-13.78,20.3-26.33.06-14.31.01-28.62.01-42.93Z"/>
      <path class="cls-2" d="m164.12,92.18c0,14.31.05,28.62-.01,42.93-.05,12.56-8.13,23.06-20.3,26.33-2.49.67-5.15,1.03-7.73,1.04-28.61.07-57.22.07-85.83.04-16.03-.02-28.1-12-28.11-27.91-.03-28.24-.03-56.47,0-84.71.01-16.07,12.07-27.97,28.33-27.98,28.42-.02,56.83-.02,85.25,0,16.43.01,28.38,11.89,28.41,28.2.02,14.02,0,28.04,0,42.07Zm-11.05-.01c0-14.21.01-28.41,0-42.62-.01-9.86-6.84-16.68-16.74-16.69-28.79-.01-57.58-.01-86.37,0-9.92,0-16.78,6.81-16.78,16.64-.01,28.51-.01,57.02,0,85.53,0,9.65,6.9,16.54,16.59,16.54,28.89.02,57.78.02,86.66,0,9.71,0,16.62-6.87,16.63-16.5.02-14.3,0-28.61,0-42.91Z"/>
      <path class="cls-1" d="m153.08,92.17c0,14.3.01,28.61,0,42.91-.01,9.63-6.92,16.5-16.63,16.5-28.89.02-57.78.02-86.66,0-9.69,0-16.59-6.9-16.59-16.54-.01-28.51-.01-57.02,0-85.53,0-9.84,6.86-16.64,16.78-16.64,28.79-.01,57.58-.01,86.37,0,9.9,0,16.73,6.82,16.74,16.69.01,14.21,0,28.41,0,42.62Zm-21.69.13c.09-20.55-17.14-37.74-38.03-37.96-20.79-.22-38.41,17.09-38.48,37.81-.07,20.56,17.14,37.74,38.03,37.97,20.78.23,38.39-17.08,38.48-37.81Zm10.7-37.79c.03-6.18-4.54-10.76-10.74-10.77-6.17,0-10.88,4.63-10.86,10.7.02,5.92,4.69,10.61,10.65,10.68,6.14.07,10.92-4.56,10.94-10.61Z"/>
      <path class="cls-2" d="m131.38,92.3c-.09,20.73-17.7,38.04-38.48,37.81-20.89-.23-38.1-17.41-38.03-37.97.07-20.72,17.69-38.03,38.48-37.81,20.89.22,38.12,17.42,38.03,37.96Zm-10.9.02c.04-14.84-12.36-27.18-27.33-27.18-14.86,0-27.29,12.17-27.38,26.85-.1,14.86,12.24,27.27,27.19,27.33,15,.07,27.49-12.18,27.53-27Z"/>
      <path class="cls-2" d="m142.08,54.51c-.03,6.06-4.8,10.69-10.94,10.61-5.96-.07-10.63-4.76-10.65-10.68-.02-6.07,4.69-10.71,10.86-10.7,6.2,0,10.76,4.59,10.74,10.77Z"/>
      <path class="cls-1" d="m120.48,92.31c-.04,14.82-12.53,27.07-27.53,27-14.95-.07-27.29-12.48-27.19-27.33.1-14.67,12.52-26.86,27.38-26.85,14.98,0,27.37,12.34,27.33,27.18Z"/>
    </g>
  </g>
</svg>