<?xml version="1.0" encoding="UTF-8"?>
<svg id="Capa_2" data-name="Capa 2" xmlns="http://www.w3.org/2000/svg" viewBox="0 0 188.03 188.09">
  <defs>
    <style>
      .cls-1 {
        fill: #020203;
      }

      .cls-1, .cls-2 {
        stroke-width: 0px;
      }

      .cls-2 {
        fill: #e5e5e5;
      }
    </style>
  </defs>
  <g id="Capa_1-2" data-name="Capa 1">
    <g>
      <path class="cls-1" d="m101.6,188.09c-2.44,0-4.88-.02-7.32-.02-2.23,0-4.46.02-6.69.02-2.44,0-4.88-.02-7.32-.02-2.23,0-4.46.02-6.69.02-2.44,0-4.88-.02-7.32-.02-2.23,0-4.46.02-6.69.02-2.44,0-4.88-.02-7.32-.02-2.23,0-4.46.02-6.69.02-2.25,0-4.51,0-6.76-.01-1.65-.05-3.31-.1-4.96-.16-3.01-.73-6.03-1.46-9.04-2.19,0,0-.02,0-.02,0-.17-.09-.34-.19-.51-.28-.37-.11-.75-.23-1.12-.34-1.88-1.05-3.76-2.11-5.65-3.16-1.61-1.2-3.22-2.41-4.83-3.61-.43-.75-1.03-1.33-1.8-1.74-1.34-1.63-2.68-3.26-4.02-4.89-1.1-1.89-2.21-3.79-3.31-5.68-.23-.54-.46-1.07-.68-1.61-.72-2.25-1.44-4.5-2.15-6.75-.23-2.42-.45-4.84-.68-7.27,0-2.25,0-4.51,0-6.76,0-2.23,0-4.46.01-6.7,0-2.44,0-4.88-.01-7.32,0-2.23,0-4.46.01-6.7,0-2.44,0-4.88-.01-7.32,0-2.23,0-4.46.01-6.7,0-2.44,0-4.88-.01-7.32,0-2.23,0-4.46.01-6.7,0-2.44,0-4.88-.01-7.32,0-2.23,0-4.46.01-6.7,0-2.44,0-4.88-.01-7.32,0-2.23,0-4.46.01-6.7,0-2.44,0-4.88-.01-7.32,0-2.23,0-4.46.01-6.7,0-2.44,0-4.88-.01-7.32,0-2.23,0-4.46.01-6.7.19-2.44.37-4.88.56-7.32.59-2.24,1.19-4.48,1.78-6.72.6-.83.98-1.75,1.14-2.76.74-1.32,1.48-2.64,2.23-3.96,1.52-2,3.03-4,4.55-6,.76-.43,1.35-1.03,1.79-1.79,2-1.52,3.99-3.04,5.99-4.55l3.97-2.22c1.01-.16,1.94-.52,2.76-1.14,2.24-.59,4.48-1.19,6.72-1.78,2.44-.19,4.88-.37,7.32-.56,2.23,0,4.47,0,6.7-.01,2.44,0,4.88.02,7.31.02C55.06.03,57.29.02,59.52,0c2.44.02,4.88.03,7.32.05C69.07.03,71.31.02,73.54,0c2.44.02,4.88.03,7.32.05C83.09.03,85.32.02,87.55,0c2.44.02,4.88.03,7.32.05,2.23-.02,4.46-.03,6.7-.05,2.44.02,4.88.03,7.32.05C111.11.03,113.35.02,115.58,0c2.44.02,4.88.03,7.32.05,2.23-.02,4.46-.03,6.7-.05,2.44.02,4.88.03,7.32.05,2.23-.02,4.46-.03,6.7-.05,2.25,0,4.51,0,6.76.01,2.42.23,4.84.45,7.27.68,2.25.72,4.5,1.44,6.75,2.16.54.22,1.07.45,1.61.67,1.89,1.1,3.78,2.2,5.67,3.31,3.98,3.01,7.37,6.58,10.23,10.66,1.05,1.88,2.11,3.77,3.16,5.65.12.37.24.75.36,1.12.09.17.17.34.26.51v.02c.74,3.01,1.47,6.03,2.2,9.04.05,1.65.1,3.31.15,4.96,0,2.25-.02,4.51-.02,6.76,0,2.23,0,4.47,0,6.7,0,2.44,0,4.88,0,7.31,0,2.23,0,4.47,0,6.7,0,2.44,0,4.88,0,7.31,0,2.23,0,4.47,0,6.7,0,2.44,0,4.88,0,7.31,0,2.23,0,4.47,0,6.7,0,2.44,0,4.88,0,7.31,0,2.23,0,4.47,0,6.7,0,2.44,0,4.88,0,7.31,0,2.23,0,4.47,0,6.7,0,2.44,0,4.88,0,7.31,0,2.23,0,4.47,0,6.7,0,2.44.02,4.88.02,7.31,0,2.42,0,4.84,0,7.26-.22,2.25-.45,4.5-.67,6.75-1.34,4.67-3.13,9.16-5.68,13.32-.9,1.22-1.81,2.44-2.71,3.66-1.45,1.45-2.89,2.89-4.34,4.34-1.22.91-2.44,1.81-3.65,2.72-4.16,2.56-8.65,4.33-13.32,5.67-2.25.23-4.5.45-6.75.68-2.42,0-4.84,0-7.26,0-2.44,0-4.88,0-7.32,0-2.23,0-4.46.02-6.69.02-2.44,0-4.88-.02-7.32-.02-2.23,0-4.46.02-6.69.02-2.44,0-4.88-.02-7.32-.02-2.23,0-4.46.02-6.69.02Zm-69.45-28.33c3.97,0,7.24-.12,10.49.04,2.01.1,3.18-.7,4.4-2.23,11.77-14.78,23.66-29.47,35.42-44.26,1.3-1.63,1.82-1.32,2.93.07,11.91,14.94,23.9,29.82,35.8,44.77,1.01,1.26,2.04,1.63,3.55,1.62,12.89-.04,25.78-.02,38.67-.05.56,0,1.3.4,1.76-.5-.65-.86-1.3-1.76-1.99-2.63-18.78-23.41-37.54-46.82-56.38-70.18-1.13-1.41-.99-2.25.03-3.51,12.5-15.51,24.97-31.06,37.44-46.59,2.03-2.53,4.04-5.09,6.32-7.98-3.78,0-6.87.16-9.94-.05-2.33-.16-3.71.78-5.1,2.53-11.64,14.65-23.39,29.21-35.05,43.84-1.23,1.54-1.82,1.68-3.16,0-11.82-14.89-23.77-29.68-35.61-44.55-1.05-1.31-2.09-1.8-3.74-1.79-12.7.06-25.4.03-38.11.05-.69,0-1.48-.33-2.09.32.07.83.69,1.29,1.15,1.85,19,23.71,37.99,47.44,57.05,71.11,1.11,1.38,1.08,2.18.04,3.47-10.76,13.34-21.47,26.71-32.2,40.08-3.76,4.69-7.52,9.39-11.67,14.57Z"/>
      <path class="cls-2" d="m34.69,159.75c4.15-5.18,7.91-9.87,11.67-14.57,10.72-13.37,21.44-26.74,32.2-40.08,1.04-1.29,1.07-2.09-.04-3.47-19.06-23.67-38.05-47.4-57.05-71.11-.45-.56-1.07-1.02-1.15-1.85.62-.65,1.41-.32,2.09-.32,12.7-.02,25.4,0,38.11-.05,1.65,0,2.69.48,3.74,1.79,11.84,14.87,23.79,29.66,35.61,44.55,1.34,1.69,1.93,1.54,3.16,0,11.66-14.63,23.41-29.19,35.05-43.84,1.39-1.75,2.77-2.69,5.1-2.53,3.07.21,6.16.05,9.94.05-2.28,2.88-4.28,5.44-6.32,7.98-12.47,15.54-24.94,31.08-37.44,46.59-1.02,1.26-1.16,2.1-.03,3.51,18.84,23.36,37.6,46.78,56.38,70.18.69.86,1.34,1.77,1.99,2.63-.46.91-1.2.5-1.76.5-12.89.03-25.78,0-38.67.05-1.51,0-2.54-.36-3.55-1.62-11.9-14.95-23.89-29.83-35.8-44.77-1.11-1.4-1.63-1.71-2.93-.07-11.76,14.79-23.65,29.48-35.42,44.26-1.22,1.53-2.38,2.33-4.4,2.23-3.25-.17-6.52-.04-10.49-.04Zm111.71-10.17c-.23-1.39-1.01-1.97-1.58-2.68-11.08-13.83-22.17-27.64-33.25-41.47-17.44-21.75-34.88-43.5-52.32-65.26-.63-.79-1.17-1.67-2.41-1.67-5.1.02-10.2.01-15.91.01,2.77,3.44,5.2,6.45,7.63,9.47,26.77,33.38,53.53,66.76,80.29,100.15.67.84,1.3,1.48,2.5,1.46,4.93-.05,9.86-.02,15.06-.02Z"/>
      <path class="cls-1" d="m146.75,149.57c-5.19,0-10.13-.03-15.06.02-1.2.01-1.83-.63-2.5-1.46-26.75-33.39-53.52-66.77-80.29-100.15-2.42-3.02-4.85-6.03-7.63-9.47,5.72,0,10.82.01,15.91-.01,1.23,0,1.77.88,2.41,1.67,17.44,21.75,34.88,43.5,52.32,65.26,11.08,13.82,22.17,27.64,33.25,41.47.57.71,1.35,1.29,1.58,2.68Z"/>
    </g>
  </g>
</svg>