<?xml version="1.0" encoding="UTF-8"?>
<svg id="Capa_2" data-name="Capa 2" xmlns="http://www.w3.org/2000/svg" viewBox="0 0 186.25 186.25">
  <defs>
    <style>
      .cls-1, .cls-2 {
        stroke-width: 0px;
      }

      .cls-2 {
        fill: #fff;
      }
    </style>
  </defs>
  <g id="Capa_1-2" data-name="Capa 1">
    <path class="cls-1" d="m92.83,186.25c-22.11,0-44.23,0-66.34,0C10.88,186.25,0,175.37,0,159.75c0-44.42,0-88.84,0-133.26C0,10.88,10.88,0,26.5,0c44.42,0,88.84,0,133.26,0,15.61,0,26.49,10.88,26.49,26.5,0,44.42,0,88.84,0,133.26,0,15.61-10.89,26.49-26.5,26.49-22.31,0-44.61,0-66.92,0Zm-13.56-85.15v3.47c0,14.06,0,28.13,0,42.19,0,4.18.36,4.54,4.41,4.55,4.17,0,8.34,0,12.51,0,4.34,0,4.49-.15,4.49-4.36.01-14.16.02-28.32.03-42.48,0-1.03,0-2.07,0-3.37,5.49,0,10.62-.04,15.74.02,2.69.03,4.14-1.12,4.44-3.86.52-4.91,1.19-9.8,1.72-14.71.25-2.35-.93-3.69-3.28-3.87-1.35-.1-2.71-.03-4.07-.03-4.81,0-9.61,0-14.55,0,0-5.45-.2-10.49.05-15.51.28-5.45,3.3-8.16,8.84-8.37,2.71-.1,5.43-.02,8.15-.04,3.26-.03,4.08-.71,4.14-3.83.08-4.07.02-8.15.02-12.22,0-2.49-1.19-3.76-3.73-3.74-4.66.03-9.32-.11-13.97.06-12,.46-20.47,6.95-23.54,18.37-.99,3.69-1.16,7.65-1.35,11.5-.22,4.51-.05,9.04-.05,13.79-4.15,0-7.92-.04-11.68.01-2.95.04-4,1.11-4.03,4.08-.04,4.66-.03,9.31.03,13.97.04,3.24,1.16,4.34,4.42,4.38,3.58.05,7.17.01,11.26.01Z"/>
    <path class="cls-2" d="m79.31,101.12c-4.09,0-7.68.04-11.26-.01-3.26-.04-4.38-1.14-4.42-4.38-.06-4.65-.07-9.31-.03-13.97.03-2.97,1.08-4.04,4.03-4.08,3.76-.06,7.53-.01,11.68-.01,0-4.75-.17-9.28.05-13.79.19-3.85.36-7.81,1.35-11.5,3.07-11.42,11.55-17.91,23.54-18.37,4.65-.18,9.31-.03,13.97-.06,2.55-.02,3.73,1.25,3.73,3.74,0,4.07.07,8.15-.02,12.22-.06,3.12-.88,3.8-4.14,3.83-2.72.02-5.43-.06-8.15.04-5.53.21-8.56,2.92-8.84,8.37-.26,5.02-.05,10.06-.05,15.51,4.93,0,9.74,0,14.55,0,1.36,0,2.72-.07,4.07.03,2.35.18,3.53,1.53,3.28,3.87-.53,4.91-1.19,9.8-1.72,14.71-.29,2.74-1.74,3.89-4.44,3.86-5.12-.05-10.24-.02-15.74-.02,0,1.31,0,2.34,0,3.37-.01,14.16-.02,28.32-.03,42.48,0,4.21-.15,4.36-4.49,4.36-4.17,0-8.34,0-12.51,0-4.05,0-4.41-.37-4.41-4.55,0-14.06,0-28.13,0-42.19v-3.47Z"/>
  </g>
</svg>