<?xml version="1.0" encoding="UTF-8"?>
<svg id="Capa_2" data-name="Capa 2" xmlns="http://www.w3.org/2000/svg" viewBox="0 0 112.1 77.1">
  <defs>
    <style>
      .cls-1 {
        fill: #00a8cd;
      }

      .cls-1, .cls-2, .cls-3, .cls-4, .cls-5, .cls-6, .cls-7, .cls-8, .cls-9, .cls-10, .cls-11, .cls-12 {
        stroke-width: 0px;
      }

      .cls-2 {
        fill: #b2a412;
      }

      .cls-3 {
        fill: #e5e6ee;
      }

      .cls-4 {
        fill: #1b1735;
      }

      .cls-5 {
        fill: #38bcd9;
      }

      .cls-6 {
        fill: #b8b9cd;
      }

      .cls-7 {
        fill: #d0d1de;
      }

      .cls-8 {
        fill: #e45940;
      }

      .cls-9 {
        fill: #13151a;
      }

      .cls-10 {
        fill: #5b5219;
      }

      .cls-11 {
        fill: #f08568;
      }

      .cls-12 {
        fill: #e94762;
      }
    </style>
  </defs>
  <g id="Capa_1-2" data-name="Capa 1">
    <g>
      <g>
        <path class="cls-7" d="m101.64,69.06H20.31c-2.25,0-4.07-1.64-4.07-3.66V3.66c0-2.02,1.82-3.66,4.07-3.66h81.33c2.25,0,4.07,1.64,4.07,3.66v61.74c0,2.02-1.82,3.66-4.07,3.66Z"/>
        <rect class="cls-9" x="20.31" y="4.34" width="81.33" height="60.39"/>
      </g>
      <g>
        <circle class="cls-4" cx="61.9" cy="34.4" r="26.71" transform="translate(-8.88 36.54) rotate(-30.8)"/>
        <path class="cls-2" d="m58.05,7.98c14.59-2.1,28.13,8.01,30.24,22.6,2.12,14.59-7.99,28.13-22.58,30.26l-7.66-52.86Z"/>
        <path class="cls-5" d="m60.03,61.08s-.09,0-.13-.01l1.86-26.6,22.3-14.92c3.2,4.76,4.91,10.58,4.48,16.75-1.03,14.71-13.79,25.81-28.51,24.78Z"/>
        <path class="cls-3" d="m58.37,60.86c1.55.21,3.08.28,4.6.22l-1.06-26.69-26.47-3.53c-1.95,14.62,8.32,28.05,22.94,30Z"/>
      </g>
      <path class="cls-5" d="m51.09,41.08l-24.77-12.97c-1.05,2-1.88,4.16-2.43,6.46-1.52,6.3-.76,12.62,1.74,18.09l25.47-11.59Z"/>
      <path class="cls-2" d="m64.57,37.03l26.89-4.87c.22,1.18.35,2.35.41,3.51.26,5-.87,9.82-3.09,14.05l-24.22-12.69Z"/>
      <path class="cls-11" d="m26.92,27.51c-.28-.12-1.29.26-1.89.65-.34.22-1.09.45-1.67.61.07.32.11.65.12.98,0-.02.93-.16,1.03-.19.31-.1.56-.34.92-.25.16.04.35.17.49.24.19.1.65.56.88.48.34-.13-.22-.53-.28-.64-.09-.17-.06-.47.2-.4.35.09.94.51,1.32.33.47-.22-.99-.64-1.24-.8.4.2,1.7.6,1.81.37.2-.44-1.18-.67-1.56-.86.4.19.88.3,1.09.23.49-.17-.93-.65-1.21-.77Z"/>
      <path class="cls-11" d="m25.5,53c-.29.09-1.26-.41-1.8-.87-.31-.26-1.03-.58-1.58-.8.1-.31.18-.64.24-.96,0,.02.9.27,1,.31.3.14.51.41.88.35.16-.02.36-.12.51-.18.2-.08.71-.48.93-.37.33.17-.28.5-.35.6-.11.15-.11.46.15.42.36-.05.99-.39,1.35-.18.44.27-1.06.52-1.33.65.42-.16,1.76-.4,1.84-.16.15.46-1.25.53-1.65.67.42-.15.91-.2,1.11-.1.47.23-1,.54-1.29.62Z"/>
      <g>
        <path class="cls-12" d="m9.41,39.15c.98.81,2.43.7,3.38-.15,1.55-1.4,4.45-3.98,5.39-4.7,1.31-1.01,7.18-4.69,7.18-4.69l-.88-1.66s-7.32,3.24-8.36,4.05c-1.03.81-7.04,4.42-7.29,5.88-.09.51.17.93.57,1.26Z"/>
        <path class="cls-2" d="m9.41,39.15c.98.81,2.43.7,3.38-.15,1.55-1.4,4.45-3.98,5.39-4.7,1.31-1.01,7.18-4.69,7.18-4.69l-.88-1.66s-7.32,3.24-8.36,4.05c-1.03.81-7.04,4.42-7.29,5.88-.09.51.17.93.57,1.26Z"/>
      </g>
      <path class="cls-11" d="m10.47,31.97s.07.08.11.12c.36.37.75.74,1.18,1.03.26.17.67.29.9.47.09.07.19.14.28.2-.13.74-.46,2.67-.41,3.42,0,0-2.35-.17-3.21-1.12,0,0,.98-2.62,1.15-4.13Z"/>
      <path class="cls-8" d="m12.82,34.52c.05-.29.09-.55.12-.73-.1-.06-.19-.13-.28-.2-.23-.18-.63-.3-.9-.47-.43-.29-.81-.66-1.18-1.03-.04-.04-.07-.08-.11-.12-.17,1.51-1.15,4.13-1.15,4.13.31.34.81.58,1.33.75.18-1.09.9-2.08,2.16-2.33Z"/>
      <path class="cls-4" d="m11.78,73.94s.06,2.35.43,2.67c.37.32,5.03.46,5.43.03.4-.43.17-1.15-.84-1.43-1.07-.3-1.6,0-2.27-.29-.67-.28-.49-1.34-.49-1.34l-2.26.35Z"/>
      <path class="cls-4" d="m.21,73.86s-.36,2.28,0,2.62c.35.33,5.11.71,5.52.3.42-.41.21-1.14-.78-1.46-1.06-.34-1.58-.12-2.26-.37-.54-.2-.18-1.28-.18-1.28l-2.3.2Z"/>
      <g>
        <path class="cls-7" d="m3.65,60.71c-.1-6.49.64-10.95.97-13.04.78.03,1.55.1,2.33.45,1.42.65,2.86,1.27,4.29,1.89-1.16,2.4-3.7,10.25-4.01,11.89-.38,2.04-4.65,12.46-4.65,12.46l-2.58-.32c.04-1.68,3.66-12.77,3.65-13.33Z"/>
        <path class="cls-6" d="m8.95,49.05c.75.37,1.53.65,2.31.94-1.14,2.36-3.22,8.88-3.69,10.61-.36-1.09-2.11-3.74-2.79-6.63-.45-1.94-.53-3.94-.22-5.9,0,0,0-.02,0-.02,1.45.1,2.85.26,4.38,1Z"/>
        <path class="cls-7" d="m7.02,48.7c1.01.34,2.84.83,4.22,1.32.96,2.43,3.81,8.18,3.96,10.78.16,2.87-.83,13.73-.83,13.73h-2.96s-.27-12.24-.69-13.03c-1.37-2.59-2.87-4.65-3.73-6.26-1.44-2.71-1.93-4.45-2.18-5.71-.11-.56-.6-2.43.35-3.02.79.22,1.01,1.92,1.86,2.2Z"/>
      </g>
      <g>
        <path class="cls-2" d="m12.32,50.61s-2.48,1-4.93.77c-1.81-.17-2.75-.2-3.81-.77,0,0,1.13-8.82,2.44-11.61,1.31-2.78,3.45-3.31,3.45-3.31,0,0,1.69.98,3.07.96,0,0-.03,5.42-.14,7.59-.11,2.17-.09,6.38-.09,6.38Z"/>
        <path class="cls-10" d="m12.44,43.44c0-.24.02-.49.02-.76,0-.03,0-.07,0-.1,0-.25.01-.52.02-.79,0-.04,0-.09,0-.13,0-.3.01-.61.02-.91,0,0,0,0,0-.01-.11,0-.22,0-.33-.02-.86-.17-1.61-.65-2.36-1.09-.13-.07-.26-.14-.39-.2-.15,1.16.37,2.57.6,3.5.62,2.55.96,5.78.43,8.24,1.1-.23,1.88-.54,1.88-.54,0,0-.02-4.22.09-6.38,0-.19.02-.42.03-.65,0-.05,0-.09,0-.14Z"/>
      </g>
      <path class="cls-2" d="m22.73,52.27l1.04-2.06s-5.15-3.3-7.03-5.2c-1.88-1.9-3.92-5.76-5.35-6.01-1.44-.24-2.88.55-2.05,2.55.83,2,5.04,4.65,5.9,5.52.86.88,6.65,4.71,7.5,5.19Z"/>
      <path class="cls-11" d="m9.77,27.96s3.8-.44,4.06.2c.26.64.32,2.44.57,2.82.25.38.69.83.53,1.08-.17.24-.35.19-.45.46-.11.28-.07,1.83-.57,2.06s-3.06.1-3.99-1.36c-.93-1.46-1.98-5.13-.14-5.26Z"/>
      <path class="cls-4" d="m8.81,28.31l2.52,1.17s-.08,1.47.65,2.75c0,0-.23.35-.46.15-.24-.2-.39-.3-.45-.67-.06-.37-.28-1.35-.94-.86-.66.48.04,1.06.37,1.2,0,0,.53,1.91-.48,1.78,0,0-.94-.59-1.74-2.89-.81-2.3-.1-3.06.53-2.63Z"/>
      <path class="cls-4" d="m14.93,27.48s.9,1.3-1.19,2.16c-2.09.87-5.11-1.42-5.11-1.42,0,0,.08-1.14,1.75-1.62,1.25-.36,2.42-.31,3.05.41,1.08,1.23,1.5.47,1.5.47Z"/>
      <g>
        <path class="cls-11" d="m104.49,32.82s-.07.08-.1.12c-.34.36-.7.73-1.1,1.02-.25.18-.64.3-.85.48-.09.07-.17.14-.27.2.15.7.52,2.55.49,3.28,0,0,2.26-.23,3.05-1.16,0,0-1.01-2.49-1.22-3.94Z"/>
        <path class="cls-8" d="m104.54,33.15s-.07.08-.1.12c-.34.36-.7.73-1.1,1.02-.25.18-.64.3-.85.48-.09.07-.17.14-.27.2.03.15.07.36.12.6.01,0,.02,0,.03,0,1.5,0,2.39.92,2.71,2.03.27-.14.51-.31.68-.51,0,0-1.01-2.49-1.22-3.94Z"/>
        <path class="cls-4" d="m101.05,73.6s.12,2.25-.21,2.59-4.79.82-5.21.44c-.42-.38-.25-1.09.69-1.43,1.01-.37,1.53-.13,2.16-.45.62-.32.37-1.32.37-1.32l2.2.17Z"/>
        <path class="cls-4" d="m111.68,73.56s.63,2.13.33,2.5c-.3.36-4.78,1.31-5.23.96-.45-.34-.34-1.06.56-1.49.97-.45,1.52-.26,2.11-.64.59-.37.25-1.35.25-1.35h1.98Z"/>
        <path class="cls-2" d="m111.33,60.53c.26-6.24-.34-10.55-.61-12.56-.75,0-1.5.06-2.25.38-1.39.59-2.78,1.15-4.17,1.71,1.06,2.34,3.31,9.95,3.56,11.53.32,1.97,1.69,12.78,1.69,12.78l2.55-.09c0-1.62-.79-13.21-.77-13.75Z"/>
        <path class="cls-10" d="m106.53,49.19c-.73.33-1.48.59-2.24.84,1.04,2.3,3.26,9.84,3.56,11.51.38-1.04,1.85-4.75,2.57-7.52.48-1.85.61-3.77.36-5.67,0,0,0-.01,0-.02-1.4.06-2.75.18-4.24.86Z"/>
        <path class="cls-2" d="m108.5,47.89c-.97.31-2.74.75-4.08,1.2-.97,2.32-3.58,9.03-4.07,11.48-.67,3.4-1.8,13.47-1.8,13.47l2.87.38s2.88-13.53,3.3-14.28c1.36-2.47,2.84-4.42,3.7-5.96,2.06-3.72,2.19-5.53,2.47-6.84-.76.2-1.56.3-2.38.56Z"/>
        <g>
          <path class="cls-11" d="m91.1,30.79c.27.03.9.77,1.2,1.34.17.32.65.83,1.04,1.21-.19.23-.37.47-.53.72,0-.01-.66-.53-.72-.6-.2-.22-.29-.52-.61-.6-.14-.04-.34-.02-.49-.02-.19,0-.76.16-.9-.01-.21-.26.4-.32.5-.38.15-.09.25-.34.02-.4-.31-.08-.96-.02-1.18-.32-.27-.38,1.06-.06,1.32-.08-.4-.01-1.6-.28-1.58-.5.03-.43,1.22,0,1.6.01-.4-.02-.83-.15-.96-.3-.31-.35,1.01-.1,1.28-.07Z"/>
          <path class="cls-5" d="m108.54,40.91c.19-1.21-.6-2.36-1.77-2.73-1.91-.61-5.47-1.75-6.53-2.18-1.47-.6-7.39-3.67-7.39-3.67l-.95,1.54s6.25,4.49,7.43,4.96c1.18.46,7.1,3.69,8.43,3.18.46-.18.69-.6.77-1.09Z"/>
          <path class="cls-5" d="m108.54,40.91c.19-1.21-.6-2.36-1.77-2.73-1.91-.61-5.47-1.75-6.53-2.18-1.47-.6-7.39-3.67-7.39-3.67l-.95,1.54s6.25,4.49,7.43,4.96c1.18.46,7.1,3.69,8.43,3.18.46-.18.69-.6.77-1.09Z"/>
        </g>
        <g>
          <path class="cls-5" d="m103.24,50.8s2.31.33,4.65.03c1.74-.22,3.32-.86,3.68-1.52,0,0-1.27-7.22-2.61-9.86-1.33-2.64-3.41-3.09-3.41-3.09,0,0-1.6.99-2.93,1.01,0,0,.19,5.21.35,7.29.16,2.08.26,6.13.26,6.13Z"/>
          <path class="cls-1" d="m105.25,43.33c.19-.89.65-2.27.47-3.38-.12.07-.25.13-.37.2-.71.44-1.41.93-2.24,1.12-.1.02-.21.03-.32.03.06,1.27.12,2.55.19,3.36.16,2.08.26,6.13.26,6.13,0,0,.65.09,1.6.13-.58-2.35-.12-5.13.4-7.6Z"/>
        </g>
        <path class="cls-11" d="m105.52,30.44s-1.05-1.98-2.33-1.84c-1.28.14-2.53.5-2.68,1.01-.15.5.03,1.6-.28,2.12-.31.52-.92,1.24-.72,1.44.16.16.54.43.58.52.04.09.51,1.74.79,1.9.28.16,2.7-.91,3.05-1.66.35-.75,1.75-2.2,1.58-3.5Z"/>
        <path class="cls-4" d="m103.57,28.66s-1.03,2.86-3.58,2.62c0,0-.63-1.16-.01-2.08.48-.71,1.93-1.37,3.59-.54Z"/>
        <path class="cls-4" d="m111.57,39.11c-.13-1.42-.84-2.25-1.86-3.16-1.23-1.1-2.02-2.24-2.47-3.84-.41-1.47-.21-2.88-1.62-3.9-1.05-.76-2.72-.33-3.41.22,0,.06,0,.1-.02.15,0,0-.95.9.57,2.18.54.45.79,1.2.84,1.33.15-.27.24-.29.32-.36.15-.12.34-.17.54.04.3.31-.15.88-.43.92-.05,0-.12.08-.2.16.15.42.45,1.56.67,3.86.06.63.36,1.1.74,1.58.43.54.74.56.99,1.2.27.69-.28,2.33,1.03,3.1.58.34,1.96.27,2.27.17,1.78-.62,2.19-1.89,2.03-3.65Z"/>
        <g>
          <path class="cls-11" d="m90.93,48.08c-.35.12-.69.22-1.04.15-.17-.03-.32-.07-.49-.04-.17.04-.38.01-.57,0-.17,0-.39-.04-.55.06-.2.12.06.27.24.34.2.08.87-.09.98.12.11.2-.71.36-.87.39-.39.07-.58-.16-.92-.27-.2-.06-.31-.03-.23.19.05.17.25.24.4.31.31.13.68.21,1.02.17-.26.06-.71,0-.97-.06-.18-.05-.91-.38-1.01-.1-.2.55,1.6.77,1.91.66-.32.08-.65.03-.98,0-.19-.02-.65-.09-.49.22.23.46,1.25.18,1.72.14-.3.13-.57.14-.91.19-.41.07-.22.34.21.35.18,0,.54-.05.62-.07.82-.15,1.2-.41,1.8-.95.21-.19.81-.32.84-.57.06-.48-.47-.92-.72-1.25Z"/>
          <path class="cls-5" d="m91,49.99l-.82-1.89s5.31-3.08,7.42-4.72c2.1-1.64,4.61-5.21,6.06-5.26,1.45-.06,2.78.91,1.7,2.78-1.08,1.87-5.58,3.96-6.54,4.72-.96.76-6.94,4.01-7.83,4.37Z"/>
        </g>
      </g>
    </g>
  </g>
</svg>