<?xml version="1.0" encoding="UTF-8"?>
<svg xmlns="http://www.w3.org/2000/svg" viewBox="0 0 84.32 88.37">
  <defs>
    <style>
      .cls-1 {
        fill: #626262;
      }

      .cls-1, .cls-2, .cls-3, .cls-4, .cls-5, .cls-6, .cls-7, .cls-8, .cls-9, .cls-10, .cls-11, .cls-12, .cls-13 {
        stroke-width: 0px;
      }

      .cls-2 {
        fill: #03547a;
        mix-blend-mode: multiply;
        opacity: .32;
      }

      .cls-3 {
        fill: #010101;
      }

      .cls-4 {
        fill: #b2a412;
      }

      .cls-14 {
        isolation: isolate;
      }

      .cls-5 {
        fill: #e5e6ee;
      }

      .cls-6 {
        fill: #1b1735;
      }

      .cls-7 {
        fill: #38bcd9;
      }

      .cls-8 {
        fill: #b8b9cd;
      }

      .cls-9 {
        fill: #d0d1de;
      }

      .cls-10 {
        fill: #e45940;
      }

      .cls-11 {
        fill: #fff;
      }

      .cls-12 {
        fill: #1bb7cf;
      }

      .cls-13 {
        fill: #f08568;
      }
    </style>
  </defs>
  <g class="cls-14">
    <g id="Capa_2" data-name="Capa 2">
      <g id="Capa_1-2" data-name="Capa 1">
        <g>
          <g>
            <polygon class="cls-6" points="49.88 83.52 34.44 83.52 35.71 64.9 48.61 64.9 49.88 83.52"/>
            <path class="cls-6" d="m51.91,80.54c-.19-.28-.5-.45-.84-.45h-17.81c-.34,0-.65.17-.84.45l-2.33,3.48c-.45.67.03,1.57.84,1.57h22.48c.81,0,1.29-.9.84-1.57l-2.33-3.48Z"/>
            <path class="cls-6" d="m4.35,13.33h75.63c2.4,0,4.35,1.95,4.35,4.35v47.83c0,2.4-1.95,4.35-4.35,4.35H4.35c-2.4,0-4.35-1.95-4.35-4.35V17.67c0-2.4,1.95-4.35,4.35-4.35Z"/>
            <rect class="cls-4" x="3.88" y="17.07" width="76.55" height="48.45"/>
          </g>
          <g>
            <path class="cls-1" d="m70.43,79.9c-8.89-1.65-19.26-3.6-19.29-.16-.03,3.25,3.92,5.78,7.32,7.39,1.85-.7,3.93-.84,5.9-1.14,3.48-.54,6.9.02,10.39.01,3.64-1.49,5.56-4.11,5.56-4.11,0,0-3.02-.72-9.88-1.99Z"/>
            <path class="cls-12" d="m62.94,86.07c.28.14-3.12,1.75-2.85,1.89,1.46.46,15.79.54,17.1.2,2.27-.58-4.21-3.4-1.95-3.87,3.72-2.63,5.82-6.08,3.8-6.51-2.27-.49-5.83.71-8.13.95-1.75.18-2.77.3-4.43-.28l-5.6-.62c-5.74,1.14-6.92,3.21-6.98,3.18,0,.82,4.19,2.5,7.94,4.49.38.13.74.31,1.09.57Z"/>
            <path class="cls-2" d="m62.94,86.07c.28.14-3.12,1.75-2.85,1.89,1.46.46,15.79.54,17.1.2,2.27-.58-4.21-3.4-1.95-3.87,3.72-2.63,5.82-6.08,3.8-6.51-2.27-.49-5.83.71-8.13.95-1.75.18-2.77.3-4.43-.28l-5.6-.62c-5.74,1.14-6.92,3.21-6.98,3.18,0,.82,4.19,2.5,7.94,4.49.38.13.74.31,1.09.57Z"/>
            <path class="cls-3" d="m60.8,83.87l1.82,2.46s-1.98,1.38-2.53,1.63c-.55.24-5.02.43-6.19-.47-1.05-.8-1.41-1.86-.87-2.36.68-.63,2.34-.84,3.16-.94,1.81-.24,4.6-.32,4.6-.32Z"/>
            <path class="cls-12" d="m59.7,83.96l1.05,3.71s17.62-.26,19.46-2.97c2.36-2.44,3.32-7.24-1.44-7.34-.72-.01-1.88.22-3.07.62-6.46,2.18-16,5.97-16,5.97Z"/>
            <path class="cls-2" d="m79.18,83.71c-1.1,0-2.02-.55-2.92-1.1-1.13-.68-2.36-1.13-3.65-1.43-1.11-.26-2.28-.65-3.17-.95-5.12,1.66-9.73,3.73-9.73,3.73l.82,2.91c.45.11.9.22,1.35.35.54.05,1.08.11,1.6.25.11.03.22.05.33.07,5.06-.28,15.27-1.06,16.62-3.05.22-.32.66-.87.82-1.23-.4.15-1.58.44-2.08.44Z"/>
            <path class="cls-3" d="m74.88,84.09l-1.53,1.94s2.49,1.52,3.01,1.77c.52.25,4.12.42,5.26-.4,1.02-.74,1.4-1.73.9-2.22-.63-.63-2.21-.87-2.99-1-1.72-.28-4.66-.08-4.66-.08Z"/>
            <path class="cls-12" d="m76.65,83.62l-1.57,4.34s-21.64-1.7-23.4-4.73c-1.05-1.81-1.21-4.62,1.06-5.62,1.39-.62,3.37-.93,6.17.03,6.98,2.4,17.74,5.97,17.74,5.97Z"/>
            <path class="cls-10" d="m68.14,54.83h-3.06s-.44,4.17-1.24,4.67c0,0-.99,4.93,2.77,4.93,4.55,0,2.77-4.93,2.77-4.93-.8-.5-1.24-4.67-1.24-4.67Z"/>
            <g>
              <path class="cls-13" d="m70.59,55.65c-.42-.49-.93.25-.93.25,0,0,.7-2.76,0-3.97-.7-1.21-2.97-.57-2.97-.57,0,0-2.27-.64-2.97.57-.7,1.21,0,3.97,0,3.97,0,0-.51-.74-.93-.25-.42.49.7,1.72.96,1.87,0,0,1.63,3.06,2.95,3.06s2.95-3.06,2.95-3.06c.25-.15,1.38-1.38.96-1.87Z"/>
              <path class="cls-6" d="m66.11,52.45s-1.72.3-1.91,1.23c-.09.45,0,.93.09,1.38.04.23.21,1.49.15,1.52-.06.03-.18,0-.22-.04-.23-.18-.41-.46-.58-.7-.33-.48-.8-.4-.93-.1,0,0-.38-4.53,1.51-4.69,1.9-.16,1.9,1.4,1.9,1.4Z"/>
              <path class="cls-6" d="m67.23,52.45s1.72.3,1.91,1.23c.09.45,0,.93-.09,1.38-.04.23-.21,1.49-.15,1.52.06.03.18,0,.22-.04.23-.18.41-.46.58-.7.33-.48.8-.4.93-.1,0,0,.38-4.53-1.51-4.69-1.89-.16-1.89,1.4-1.89,1.4Z"/>
              <path class="cls-6" d="m69.76,51.32s.04-.75-.81-1.21c-.85-.46-2.54-.67-3.87,0-1.34.67-1.74.82-2.13.6-.39-.22-.14-.45-.14-.45,0,0-.88,0-.83,1.35.04,1.36,1.71,3.05,3.9,3.05,3.33,0,4.41-2.33,3.9-3.34Z"/>
            </g>
            <path class="cls-9" d="m69.38,59.5c-.16,4.19-2.77,3.76-2.77,3.76,0,0-2.61.43-2.77-3.76,0,0-4.17,1.15-6.21,2.52,0,0,.87,3.66.92,7.73l2.38,9.24,5.67-1.03,5.67,1.03,2.38-9.24c.06-4.06.92-7.73.92-7.73-2.03-1.36-6.2-2.52-6.2-2.52Z"/>
            <path class="cls-8" d="m74.25,64.44c-2.59,1.38-3.85,4.56-6.37,6.12-2.61,1.61-4.45-1.64-5.72-3.34-1.09-1.46-2.48-2.64-4.17-3.32.24,1.45.52,3.58.56,5.84l2.38,9.24,5.67-.69,5.67.69,2.38-9.24c.03-2.21.3-4.3.54-5.75-.33.14-.65.29-.95.45Z"/>
            <path class="cls-9" d="m57.63,62.02s-4.73,11.1-4.78,12.63c-.11,2.96,6.37,4.16,9.32,3.62l1.2-.22s-4.38-16.11-5.74-16.03Z"/>
            <path class="cls-9" d="m75.57,62.02s4.77,11.1,4.78,12.63c.02,2.99-6.37,4.16-9.32,3.62l-1.2-.22s4.38-16.11,5.74-16.03Z"/>
            <path class="cls-8" d="m59.64,65.92c0,.51-.07,1.05-.2,1.63-.46,2.01-1.18,4.12-.42,6.16.57,1.55,1.48,3.12,2.33,4.6.29.01.57,0,.82-.05l1.2-.22s-2.01-7.38-3.73-12.13Z"/>
            <path class="cls-8" d="m72.75,78.21c.38-.94.61-1.92.57-2.97-.07-2.06-.08-4.12-.05-6.18.01-.89.04-1.75.09-2.6-1.67,4.74-3.53,11.58-3.53,11.58l1.2.22c.49.09,1.08.06,1.72-.06Z"/>
            <g>
              <rect class="cls-6" x="59.17" y="78.17" width="14.86" height=".88"/>
              <path class="cls-6" d="m76.23,67.87h-19.24s-1.04,0-.86,1.16c.18,1.16,2.6,9.26,3.09,9.26h14.77c.43,0,2.91-8.1,3.09-9.26.18-1.16-.86-1.16-.86-1.16Z"/>
              <path class="cls-11" d="m67.4,73.48c0,.44-.36.8-.8.8s-.8-.36-.8-.8.36-.8.8-.8.8.36.8.8Z"/>
            </g>
          </g>
          <g>
            <g>
              <path class="cls-6" d="m16.41,41.3s24.09,30.39,51.5,0c-27.41-30.39-51.5,0-51.5,0Z"/>
              <path class="cls-11" d="m20.01,41.3s20.72,26.13,44.29,0c-23.58-26.13-44.29,0-44.29,0Z"/>
            </g>
            <circle class="cls-7" cx="42.16" cy="41.3" r="11.45" transform="translate(-7.58 73.05) rotate(-76.96)"/>
            <path class="cls-6" d="m49.37,41.3c0,3.98-3.23,7.21-7.21,7.21s-7.21-3.23-7.21-7.21,3.23-7.21,7.21-7.21,7.21,3.23,7.21,7.21Z"/>
            <path class="cls-11" d="m50.69,36.75c0,1.62-1.31,2.93-2.93,2.93s-2.93-1.31-2.93-2.93,1.31-2.93,2.93-2.93,2.93,1.31,2.93,2.93Z"/>
          </g>
          <g>
            <g>
              <rect class="cls-5" x="7" width="34.09" height="23.06" rx="1.55" ry="1.55"/>
              <rect class="cls-6" x="8.55" y="1.84" width="30.99" height="19.39"/>
            </g>
            <polygon class="cls-4" points="19.87 7.05 19.87 16.54 29.12 11.8 19.87 7.05"/>
          </g>
        </g>
      </g>
    </g>
  </g>
</svg>